<svg width="40" height="55" viewBox="0 0 40 55" fill="none" xmlns="http://www.w3.org/2000/svg">
<path d="M17.9446 53.0906C2.80938 31.1491 0 28.8972 0 20.8333C0 9.7876 8.95427 0.833328 20 0.833328C31.0457 0.833328 40 9.7876 40 20.8333C40 28.8972 37.1906 31.1491 22.0554 53.0906C21.0622 54.5254 18.9377 54.5253 17.9446 53.0906ZM20 29.1667C24.6024 29.1667 28.3333 25.4357 28.3333 20.8333C28.3333 16.2309 24.6024 12.5 20 12.5C15.3976 12.5 11.6667 16.2309 11.6667 20.8333C11.6667 25.4357 15.3976 29.1667 20 29.1667Z" fill="#FF7021"/>
</svg>
