<svg width="27" height="22" viewBox="0 0 27 22" fill="none" xmlns="http://www.w3.org/2000/svg">
<path d="M26.15 2.5C25.1875 2.9375 24.15 3.225 23.075 3.3625C24.175 2.7 25.025 1.65 25.425 0.3875C24.3875 1.0125 23.2375 1.45 22.025 1.7C21.0375 0.625 19.65 0 18.075 0C15.1375 0 12.7375 2.4 12.7375 5.3625C12.7375 5.7875 12.7875 6.2 12.875 6.5875C8.425 6.3625 4.4625 4.225 1.825 0.9875C1.3625 1.775 1.1 2.7 1.1 3.675C1.1 5.5375 2.0375 7.1875 3.4875 8.125C2.6 8.125 1.775 7.875 1.05 7.5V7.5375C1.05 10.1375 2.9 12.3125 5.35 12.8C4.56341 13.0153 3.73762 13.0452 2.9375 12.8875C3.27701 13.9531 3.94192 14.8855 4.83877 15.5537C5.73562 16.2218 6.81931 16.5921 7.9375 16.6125C6.04204 18.113 3.6925 18.9241 1.275 18.9125C0.85 18.9125 0.425 18.8875 0 18.8375C2.375 20.3625 5.2 21.25 8.225 21.25C18.075 21.25 23.4875 13.075 23.4875 5.9875C23.4875 5.75 23.4875 5.525 23.475 5.2875C24.525 4.5375 25.425 3.5875 26.15 2.5Z" fill="#FF7021"/>
</svg>
